<svg width="590" height="450" viewBox="0 0 590 450" fill="none" xmlns="http://www.w3.org/2000/svg">
<g clip-path="url(#clip0)">
<path d="M67.2513 450.19C64.8083 450.179 62.4224 449.433 60.3919 448.045C58.3614 446.657 56.7763 444.687 55.8348 442.384C54.8933 440.08 54.6371 437.543 55.0982 435.092C55.5593 432.64 56.7173 430.381 58.4275 428.598C99.9367 385.606 133.989 372.207 166.923 359.188C267.216 319.625 286.728 294.668 289.276 283.301C289.736 280.834 289.535 278.286 288.692 275.927C287.85 273.567 286.398 271.485 284.491 269.901C274.549 258.915 247.207 280.316 222.849 299.177C195.942 320.07 170.589 339.883 147.722 336.073C143.016 335.24 138.533 333.408 134.562 330.695C130.591 327.982 127.221 324.449 124.668 320.324C121.414 315.822 119.171 310.644 118.097 305.156C117.023 299.668 117.145 294.006 118.454 288.572C125.787 260.058 166.177 239.483 208.929 217.765C245.219 199.285 286.293 178.392 291.513 158.388C292.095 155.76 292.078 153.03 291.464 150.41C290.85 147.789 289.655 145.348 287.971 143.274C286.378 140.156 284.083 137.47 281.273 135.438C278.464 133.407 275.222 132.087 271.815 131.59C246.959 128.605 205.574 168.041 168.974 202.778C114.85 254.025 58.8003 307.115 20.2117 265.774C12.355 257.808 6.50857 248.011 3.17481 237.226C-0.158948 226.441 -0.880313 214.99 1.07271 203.857C10.1451 149.561 80.2385 83.5805 188.548 27.3158C255.286 -7.35742 344.394 -9.19904 405.29 22.807C443.879 43.0648 467.43 74.0548 473.022 112.411C480.914 165.12 459.849 192.426 440.337 205.826C408.024 228.37 363.16 224.877 344.518 213.954C343.102 213.12 341.861 212.01 340.865 210.685C339.869 209.361 339.139 207.85 338.714 206.237C337.858 202.98 338.303 199.508 339.951 196.586C341.599 193.664 344.315 191.53 347.502 190.655C350.689 189.78 354.086 190.234 356.946 191.918C367.82 198.269 402.246 201.698 426.356 184.869C445.743 171.28 453.2 148.228 448.477 116.222C442.823 78.1191 415.668 56.7817 393.919 45.4145C339.733 16.9011 259.884 19.0603 199.857 49.9868C99.9988 101.616 33.1989 162.453 25.5557 208.112C24.2209 215.33 24.6575 222.774 26.8262 229.778C28.995 236.782 32.8284 243.127 37.9836 248.247C59.6703 271.426 106.337 226.909 151.947 183.853C197.558 140.798 238.632 101.616 274.735 106.061C281.709 107.021 288.382 109.568 294.265 113.513C300.148 117.459 305.089 122.703 308.725 128.859C312.384 133.929 314.895 139.767 316.077 145.95C317.259 152.133 317.083 158.507 315.561 164.612C307.545 195.729 265.041 217.32 220.052 240.245C185.814 257.645 146.976 277.395 142.564 294.795C142.122 296.762 142.133 298.807 142.597 300.769C143.06 302.731 143.964 304.555 145.236 306.099C145.862 307.326 146.743 308.4 147.816 309.244C148.889 310.089 150.129 310.684 151.45 310.989C163.878 313.021 188.051 294.16 207.376 279.237C239.999 253.835 277.034 225.004 302.325 252.946C307.001 257.56 310.443 263.321 312.325 269.679C314.206 276.037 314.465 282.781 313.075 289.27C306.302 318.99 262.618 348.837 175.498 383.129C143.559 395.83 113.359 407.578 75.7023 446.633C73.4295 448.873 70.408 450.144 67.2513 450.19V450.19Z" fill="black"/>
<path d="M490.423 305.592C482.398 305.592 474.552 303.16 467.88 298.603C461.207 294.047 456.006 287.57 452.935 279.993C449.863 272.415 449.06 264.078 450.626 256.034C452.191 247.99 456.056 240.601 461.731 234.801C467.405 229.002 474.636 225.052 482.507 223.452C490.378 221.852 498.537 222.673 505.951 225.812C513.366 228.951 519.703 234.266 524.162 241.085C528.62 247.905 531 255.922 531 264.124C530.984 275.117 526.703 285.654 519.097 293.427C511.491 301.201 501.18 305.575 490.423 305.592V305.592ZM490.423 248.057C487.314 248.057 484.274 248.999 481.689 250.765C479.103 252.53 477.088 255.039 475.898 257.975C474.709 260.911 474.397 264.141 475.004 267.258C475.61 270.375 477.108 273.237 479.306 275.484C481.505 277.731 484.306 279.262 487.356 279.881C490.406 280.501 493.567 280.183 496.439 278.967C499.312 277.751 501.767 275.692 503.495 273.05C505.222 270.408 506.144 267.301 506.144 264.124C506.144 262.014 505.738 259.924 504.948 257.975C504.157 256.026 502.999 254.255 501.54 252.763C500.08 251.271 498.347 250.087 496.439 249.28C494.532 248.473 492.488 248.057 490.423 248.057V248.057Z" fill="black"/>
</g>
<defs>
<clipPath id="clip0">
<rect width="590" height="450" fill="white"/>
</clipPath>
</defs>
</svg>
