<?xml version="1.0" encoding="utf-8"?><svg xmlns="http://www.w3.org/2000/svg" xmlns:xlink="http://www.w3.org/1999/xlink"><symbol viewBox="-79 -16 533 533.333" id="checklist" xmlns="http://www.w3.org/2000/svg"><path d="M315.809 33.95h-80.356a56.94 56.94 0 00-104.183 0H50.91C20.598 33.983-3.965 58.55-4 88.862v356.223c.035 30.312 24.598 54.879 54.91 54.914h264.9c30.312-.035 54.879-24.602 54.914-54.914V88.863c-.035-30.312-24.602-54.879-54.914-54.914zm-175.496 25a12.5 12.5 0 0012.207-9.821C155.59 35.152 168.563 25 183.363 25s27.77 10.152 30.84 24.129a12.494 12.494 0 0012.211 9.82H251.2v10.969c-.02 16.512-13.398 29.89-29.91 29.91h-75.855c-16.516-.02-29.895-13.398-29.914-29.91V58.949zm205.41 386.136c-.016 16.516-13.399 29.898-29.914 29.914H50.91c-16.512-.016-29.89-13.398-29.91-29.914V88.863c.02-16.515 13.398-29.894 29.91-29.914h39.61v10.969c.035 30.312 24.601 54.875 54.914 54.91h75.855c30.313-.035 54.875-24.598 54.91-54.91V58.949h39.61c16.515.02 29.894 13.399 29.914 29.914zm0 0"/><path d="M245.227 230.957l-82.063 80.125-41.672-40.676c-4.902-4.797-12.754-4.738-17.594.121-4.835 4.864-4.855 12.715-.039 17.598l.168.164 50.399 49.211c4.86 4.742 12.613 4.742 17.469 0l90.792-88.648c4.91-4.829 4.989-12.715.184-17.641-4.812-4.926-12.695-5.035-17.644-.246zm0 0"/></symbol><symbol viewBox="0 0 512 512" id="drag-row" xmlns="http://www.w3.org/2000/svg"><path d="M81.067 136.533c3.399 0 6.038-1.511 7.434-4.02l24.14-24.14c3.413-3.413 3.413-8.533 0-11.947s-8.533-3.413-11.947 0L89.6 107.52V29.013l11.093 11.093c1.707 1.707 3.413 2.56 5.973 2.56s4.267-.853 5.973-2.56c3.413-3.413 3.413-8.533 0-11.947L88.5 4.02C87.105 1.511 84.466 0 81.067 0s-6.038 1.511-7.434 4.02l-24.14 24.14c-3.413 3.413-3.413 8.533 0 11.947 3.413 3.413 8.533 3.413 11.947 0l11.093-11.093v78.507L61.44 96.427c-3.413-3.413-8.533-3.413-11.947 0-3.413 3.413-3.413 8.533 0 11.947l24.14 24.14c1.395 2.509 4.035 4.019 7.434 4.019zM422.4 179.2c-9.387 0-18.773 3.413-25.6 8.533V179.2c0-23.893-18.773-42.667-42.667-42.667-9.387 0-18.773 3.413-25.6 8.533v-102.4C328.533 18.773 309.76 0 285.867 0 261.973 0 243.2 18.773 243.2 42.667c-6.827-5.12-16.213-8.533-25.6-8.533-23.893 0-42.667 18.773-42.667 42.667v159.573c-18.773-32.427-62.293-48.64-95.573-36.693-4.267.853-7.68 3.413-11.947 5.973-12.8 8.533-11.947 19.627-11.947 23.04-.853 5.12 0 5.973 11.947 19.627 14.507 17.067 46.08 52.907 65.707 88.747 1.707 1.707 24.747 39.253 50.347 67.413v22.187c0 46.933 38.4 85.333 85.333 85.333h85.333c36.693 0 75.093-30.72 83.627-66.56 2.56-10.24 5.12-17.92 8.533-21.333 8.533-10.24 18.773-34.133 18.773-65.707V221.867c.001-23.894-18.773-42.667-42.666-42.667zm-67.413 315.733h-85.333c-37.547 0-68.267-30.72-68.267-68.267v-7.726a90.504 90.504 0 005.12 3.459c5.12 4.267 9.387 6.827 14.507 11.093 3.413 3.413 10.24.853 11.093-1.707 3.413-3.413 2.56-8.533-.853-11.947-5.12-5.12-10.24-8.533-15.36-11.947-5.914-4.224-11.828-8.451-17.742-13.504-25.358-26.455-49.672-65.856-49.672-65.856-20.48-36.691-52.907-73.384-68.267-91.304-2.56-3.413-5.973-7.68-7.68-9.387 0-2.56 0-4.267 5.973-7.68 3.413-1.707 5.973-3.413 8.533-4.267 22.187-7.68 58.88 2.56 75.093 30.72l13.191 19.786c.109.523.26 1.041.462 1.547l8.533 17.067c1.707 3.413 10.24 5.12 11.093 3.413 3.413-1.707 5.12-6.827 3.413-11.093l-6.02-12.039c.028-.253.046-.507.046-.761V76.8c0-14.507 11.093-25.6 25.6-25.6s25.6 11.093 25.6 25.6v100.925c-.55 1.169-.853 2.525-.853 4.035v99.84c0 5.12 3.413 8.533 8.533 8.533s8.533-3.413 8.533-8.533v-98.365c.55-1.169.853-2.525.853-4.035V42.667c0-14.507 11.093-25.6 25.6-25.6 14.507 0 25.6 11.093 25.6 25.6v230.4c0 5.12 3.413 8.533 8.533 8.533s8.533-3.413 8.533-8.533V179.2c0-14.507 11.093-25.6 25.6-25.6 14.507 0 25.6 11.093 25.6 25.6v102.4c0 5.12 3.413 8.533 8.533 8.533s8.533-3.413 8.533-8.533v-59.733c0-14.507 11.093-25.6 25.6-25.6 14.507 0 25.6 11.093 25.6 25.6V358.4c0 20.056-4.893 35.215-9.606 44.639a7.02 7.02 0 00-1.488 1.441c-4.267 5.973-11.947 8.533-29.013 12.8l-5.973 1.707c-4.267.853-6.827 5.973-5.973 10.24 1.707 3.413 5.12 5.973 8.533 5.973h2.56l4.267-.853c4.291-1.226 8.281-2.355 11.997-3.514a103.281 103.281 0 00-2.61 10.341c-5.969 29.013-37.542 53.759-66.555 53.759z"/></symbol><symbol viewBox="0 0 512.001 512.001" id="preference" xmlns="http://www.w3.org/2000/svg"><path d="M504.008 223.961c-4.121-2.587-36.412-21.931-49.246-27.802l-15.903-38.392c4.725-12.695 13.752-48.308 15.164-54.482a17.069 17.069 0 00-4.57-15.87l-24.868-24.867a17.066 17.066 0 00-15.87-4.57c-4.682 1.071-41.226 10.23-54.482 15.164L315.84 57.239c-5.618-12.28-24.386-43.807-27.802-49.246A17.064 17.064 0 00273.585.001h-35.17a17.067 17.067 0 00-14.454 7.992c-2.587 4.121-21.931 36.412-27.802 49.246l-38.392 15.903c-12.695-4.725-48.308-13.752-54.482-15.164a17.071 17.071 0 00-15.87 4.57L62.547 87.416a17.066 17.066 0 00-4.57 15.87c1.071 4.682 10.23 41.226 15.164 54.482L57.238 196.16c-12.28 5.618-43.807 24.386-49.246 27.802A17.064 17.064 0 000 238.415v35.17a17.067 17.067 0 007.992 14.454c4.121 2.587 36.412 21.931 49.246 27.802l15.903 38.392c-4.725 12.695-13.752 48.308-15.164 54.482a17.069 17.069 0 004.57 15.87l24.868 24.868a17.065 17.065 0 0015.87 4.57c4.682-1.071 41.226-10.23 54.482-15.164l38.392 15.903c5.618 12.28 24.386 43.807 27.802 49.246A17.067 17.067 0 00238.415 512h35.17a17.067 17.067 0 0014.454-7.992c2.587-4.121 21.931-36.412 27.802-49.246l38.392-15.903c12.695 4.725 48.308 13.752 54.482 15.164a17.059 17.059 0 0015.87-4.57l24.868-24.868a17.066 17.066 0 004.57-15.87c-1.071-4.682-10.23-41.226-15.164-54.482l15.903-38.392c12.28-5.618 43.807-24.386 49.246-27.802A17.067 17.067 0 00512 273.585v-35.17a17.067 17.067 0 00-7.992-14.454zm-26.139 40.005h-.002c-12.158 7.224-32.394 18.862-38.739 21.496a17.066 17.066 0 00-13 10.312l-21.705 52.401a17.07 17.07 0 001.901 16.484c2.628 6.356 8.705 28.89 12.192 42.592l-11.266 11.266c-13.701-3.487-36.236-9.564-42.592-12.192a17.064 17.064 0 00-16.484-1.901l-52.401 21.705a17.072 17.072 0 00-10.312 13c-2.633 6.345-14.272 26.581-21.496 38.739h-15.932c-7.224-12.158-18.862-32.394-21.496-38.739a17.065 17.065 0 00-10.312-13l-52.402-21.705a17.067 17.067 0 00-16.483 1.901c-6.353 2.628-28.889 8.704-42.593 12.192l-11.266-11.266c3.487-13.701 9.565-36.236 12.192-42.592a17.07 17.07 0 001.901-16.484l-21.705-52.401a17.072 17.072 0 00-13-10.312c-6.342-2.633-26.577-14.272-38.736-21.496v-15.932c12.158-7.224 32.394-18.862 38.739-21.496a17.065 17.065 0 0013-10.312l21.705-52.401a17.072 17.072 0 00-1.901-16.484c-2.628-6.356-8.705-28.89-12.192-42.592l11.266-11.266c13.701 3.487 36.236 9.564 42.592 12.192a17.069 17.069 0 0016.484 1.901l52.401-21.705a17.072 17.072 0 0010.312-13c2.632-6.343 14.271-26.578 21.495-38.737h15.932c7.224 12.158 18.862 32.394 21.496 38.739a17.065 17.065 0 0010.312 13l52.401 21.705a17.067 17.067 0 0016.483-1.901c6.353-2.628 28.889-8.704 42.593-12.192l11.266 11.266c-3.487 13.701-9.565 36.236-12.192 42.592a17.07 17.07 0 00-1.901 16.484l21.705 52.401a17.072 17.072 0 0013 10.312c6.345 2.633 26.581 14.272 38.739 21.496v15.93z"/><path d="M256 144.396c-61.539 0-111.605 50.066-111.605 111.605S194.461 367.605 256 367.605 367.605 317.539 367.605 256 317.539 144.396 256 144.396zm0 189.076c-42.718 0-77.471-34.753-77.471-77.471S213.282 178.53 256 178.53s77.471 34.753 77.471 77.471-34.753 77.471-77.471 77.471z"/></symbol><symbol viewBox="0 0 512 512" id="random" xmlns="http://www.w3.org/2000/svg"><path d="M55.268 432.347c-12.98 0-23.54 10.56-23.54 23.54 0 12.98 10.56 23.54 23.54 23.54 12.98 0 23.54-10.56 23.54-23.54 0-12.98-10.56-23.54-23.54-23.54zm0 31.729c-4.515 0-8.188-3.673-8.188-8.188s3.673-8.188 8.188-8.188c4.514 0 8.188 3.673 8.188 8.188s-3.673 8.188-8.188 8.188zm71.387-103.115c-12.98 0-23.54 10.56-23.54 23.54 0 12.98 10.56 23.54 23.54 23.54 12.98 0 23.54-10.56 23.54-23.54 0-12.981-10.56-23.54-23.54-23.54zm0 31.728c-4.515 0-8.188-3.673-8.188-8.188 0-4.515 3.674-8.188 8.188-8.188s8.188 3.673 8.188 8.188c0 4.515-3.673 8.188-8.188 8.188zm71.387-103.116c-12.98 0-23.54 10.56-23.54 23.54 0 12.98 10.56 23.54 23.54 23.54 12.98 0 23.54-10.56 23.54-23.54-.001-12.98-10.56-23.54-23.54-23.54zm0 31.729c-4.515 0-8.188-3.673-8.188-8.188s3.674-8.188 8.188-8.188 8.188 3.673 8.188 8.188-3.673 8.188-8.188 8.188z" data-original="#000000" xmlns="http://www.w3.org/2000/svg"/><path d="M332.884 0L153.767 179.116l79.575 79.575H0V512h253.309V278.658l79.575 79.575L512 179.116 332.884 0zm-94.926 496.648H15.353V274.043h222.605v222.605zm-62.479-317.532L332.884 21.712 490.29 179.117 332.884 336.521 175.479 179.116z" data-original="#000000" xmlns="http://www.w3.org/2000/svg"/><path d="M248.573 161.626c-9.178-9.178-24.112-9.178-33.291 0-9.177 9.178-9.177 24.112 0 33.291 4.589 4.589 10.617 6.883 16.646 6.883s12.056-2.294 16.646-6.883c9.176-9.177 9.176-24.112-.001-33.291zm-10.855 22.434c-3.193 3.192-8.388 3.192-11.579 0-3.193-3.193-3.193-8.388 0-11.58a8.161 8.161 0 015.79-2.394c2.096 0 4.193.798 5.79 2.394 3.19 3.193 3.19 8.389-.001 11.58zm111.81 78.523c-4.446-4.446-10.357-6.895-16.645-6.895s-12.198 2.448-16.645 6.894c-4.446 4.446-6.895 10.357-6.895 16.646s2.448 12.2 6.895 16.646c4.589 4.589 10.617 6.884 16.645 6.884s12.057-2.295 16.645-6.884a23.384 23.384 0 006.895-16.646c0-6.288-2.449-12.2-6.895-16.645zm-10.855 22.434c-3.193 3.191-8.387 3.191-11.579 0a8.132 8.132 0 01-2.398-5.79 8.14 8.14 0 012.398-5.79 8.131 8.131 0 015.79-2.397c2.187 0 4.243.851 5.79 2.398a8.131 8.131 0 012.398 5.789 8.133 8.133 0 01-2.399 5.79zm10.855-123.391c-9.179-9.179-24.112-9.178-33.289 0-4.447 4.446-6.895 10.358-6.895 16.646s2.448 12.2 6.895 16.646c4.589 4.588 10.617 6.883 16.645 6.883s12.056-2.295 16.645-6.883c4.447-4.446 6.895-10.358 6.895-16.646s-2.449-12.2-6.896-16.646zm-10.855 22.434c-3.193 3.191-8.387 3.191-11.579 0a8.132 8.132 0 01-2.398-5.79c0-2.187.852-4.243 2.398-5.79 1.596-1.596 3.692-2.394 5.79-2.394s4.193.798 5.79 2.394a8.132 8.132 0 012.398 5.79 8.131 8.131 0 01-2.399 5.79zm10.855-123.391c-9.179-9.179-24.112-9.178-33.289 0-4.447 4.446-6.895 10.358-6.895 16.646s2.449 12.2 6.895 16.645c4.446 4.447 10.357 6.895 16.645 6.895s12.198-2.448 16.645-6.894c4.446-4.446 6.895-10.357 6.895-16.646s-2.449-12.2-6.896-16.646zm-10.855 22.434c-1.547 1.547-3.602 2.397-5.79 2.397s-4.243-.851-5.79-2.398a8.131 8.131 0 01-2.398-5.789c0-2.185.852-4.242 2.398-5.789 1.596-1.596 3.692-2.394 5.79-2.394s4.193.798 5.79 2.394a8.132 8.132 0 012.398 5.79 8.127 8.127 0 01-2.398 5.789zm111.813 78.523c-9.177-9.178-24.111-9.178-33.29 0-9.178 9.178-9.178 24.112 0 33.291 4.589 4.588 10.617 6.882 16.646 6.882 6.028 0 12.056-2.294 16.645-6.883 9.177-9.178 9.177-24.112-.001-33.29zm-10.855 22.437c-3.193 3.191-8.388 3.191-11.581 0-3.193-3.194-3.193-8.389 0-11.581a8.165 8.165 0 015.791-2.394c2.097 0 4.193.798 5.79 2.394 3.192 3.192 3.192 8.388 0 11.581z" data-original="#000000" xmlns="http://www.w3.org/2000/svg"/></symbol><symbol viewBox="0 0 50 50" id="scroll-down" xmlns="http://www.w3.org/2000/svg"><g xmlns="http://www.w3.org/2000/svg"><path d="M25 45a14 14 0 0014-14V19a14 14 0 00-28 0v12a14 14 0 0014 14zM13 19a12 12 0 0124 0v12a12 12 0 01-24 0z" data-original="#000000"/><path d="M24 24.5h.09l.2.21a1 1 0 001.42 0l.2-.21H26v-.09l5.71-5.7-1.42-1.42-4.29 4.3V11h-2v10.59l-4.29-4.3-1.42 1.42 5.71 5.7z" data-original="#000000"/></g></symbol></svg>